<svg xmlns="http://www.w3.org/2000/svg" viewBox="0 0 1763.75 417.5"><defs><style>.cls-1{fill:#fef6e3;}</style></defs><title>potatowire-title</title><g id="Layer_6" data-name="Layer 6"><path class="cls-1" d="M525.43,367.57l-34-200,16.17-.12,26.31,162.44,30.29-159.42h15.57l30.77,159.67L635,167.48h15.93L618.6,367.57H603.87L572.13,202.35l-31.5,165.22Z" transform="translate(-151.96 -39.05)"/><path class="cls-1" d="M677.73,367.57V167.48h18.59V367.57Z" transform="translate(-151.96 -39.05)"/><path class="cls-1" d="M753.28,367.57V182H713.09V167.48h98.36V182H772.23V367.57Z" transform="translate(-151.96 -39.05)"/><path class="cls-1" d="M827.62,367.57V167.48h18.95v88.7h63v-88.7h18.95V367.57H909.57V270.06h-63v97.51Z" transform="translate(-151.96 -39.05)"/><path class="cls-1" d="M1035.32,367.57V182H995.13V167.48h98.36V182h-39.22V367.57Z" transform="translate(-151.96 -39.05)"/><path class="cls-1" d="M1109.66,367.57V167.48h18.95v88.7h63v-88.7h18.95V367.57H1191.6V270.06h-63v97.51Z" transform="translate(-151.96 -39.05)"/><path class="cls-1" d="M1245.31,367.57V167.48h72.29V182h-53.34V256.9h43.69v14h-43.69v82.55h53.95v14.12Z" transform="translate(-151.96 -39.05)"/><path class="cls-1" d="M1439.61,370.23q-13.88,0-23.65-4.47a35.1,35.1,0,0,1-15.33-13.09,59.4,59.4,0,0,1-8-19.85,125.6,125.6,0,0,1-2.41-26.19v-78.2a127.54,127.54,0,0,1,2.35-26.25,57.9,57.9,0,0,1,7.91-19.61,34.22,34.22,0,0,1,15.63-12.91q10.08-4.34,24.68-4.34,25.95,0,37.17,14.42t11.22,43.14V230h-17.74v-7.12q0-22.45-6.4-32.52t-24-10.08a36.83,36.83,0,0,0-13.88,2.35,24.78,24.78,0,0,0-9.23,6.15,27,27,0,0,0-5.43,10,62.28,62.28,0,0,0-2.66,12.61,150,150,0,0,0-.66,15.21V308.8a117.39,117.39,0,0,0,1.39,19.61,44,44,0,0,0,4.89,14.24,21.69,21.69,0,0,0,10,9.23q6.46,3,16,3,17.62,0,24.44-11.46t6.82-35.12V284.66h-29.45V270.78h46.83v96.79H1478l-2.29-22.69Q1467.37,370.23,1439.61,370.23Z" transform="translate(-151.96 -39.05)"/><path class="cls-1" d="M1522.64,367.57V167.48h45.5q26.67,0,38.14,12.85T1617.74,218q0,41.4-27.88,47.19l31,102.34h-18.58L1573,269.21h-31.38v98.36Zm18.95-112.24h25.46q18.1,0,25.22-8.87T1599.4,218q0-19.31-6.76-27.88t-25-8.57h-26.07Z" transform="translate(-151.96 -39.05)"/><path class="cls-1" d="M1638.62,367.57l42.24-200.09h19.79l42.48,200.09h-18.46l-9.9-53.46H1667l-10.14,53.46Zm31-67.22h42.6l-21.36-107.89Z" transform="translate(-151.96 -39.05)"/><path class="cls-1" d="M1768,367.57V167.48h18.58V367.57Z" transform="translate(-151.96 -39.05)"/><path class="cls-1" d="M1821.94,367.57V167.48h13.88l63.72,155.32V167.48h16.17V367.57h-13.28l-64.2-157.13V367.57Z" transform="translate(-151.96 -39.05)"/></g><g id="Layer_7" data-name="Layer 7"><path class="cls-1" d="M255,409.25a10,10,0,0,0-6.56-3.2,3.37,3.37,0,0,0-2.45.89c-1.82,1.82-.76,5.94,2.31,9s7.19,4.13,9,2.31a4.13,4.13,0,0,0,.74-3.74A10.88,10.88,0,0,0,255,409.25Z" transform="translate(-151.96 -39.05)"/><ellipse class="cls-1" cx="205.74" cy="272.24" rx="6.04" ry="8.08"/><path class="cls-1" d="M258.13,142.45a10.38,10.38,0,0,0,11.38-3.38,5.36,5.36,0,0,0,1-4.71c-.73-2.45-3.41-3.94-6.58-3.94a10.84,10.84,0,0,0-3.08.46c-4.37,1.3-7.14,5-6.19,8.19A5.36,5.36,0,0,0,258.13,142.45Z" transform="translate(-151.96 -39.05)"/><path class="cls-1" d="M238.41,214a32.25,32.25,0,1,0,32.25,32.25A32.25,32.25,0,0,0,238.41,214ZM224,247.28a8.73,8.73,0,1,1,8.73-8.73A8.73,8.73,0,0,1,224,247.28Z" transform="translate(-151.96 -39.05)"/><path class="cls-1" d="M333.63,214.4A32.62,32.62,0,1,0,366.25,247,32.62,32.62,0,0,0,333.63,214.4Zm-10.42,32.89a8.73,8.73,0,1,1,8.73-8.73A8.73,8.73,0,0,1,323.21,247.28Z" transform="translate(-151.96 -39.05)"/><path class="cls-1" d="M393,250.14v-.81c-.2-14.47-2-31.9-5-43.5-4.11-15.56-1.43-10.87-19.4-39.2-12.09-19.05-35.59-38.1-53.95-50.12l8.6-38.74,8.65-5.54-19.61-4.59,4.55,8.27-8.47,36.64c-2.36-1.43-4.58-2.72-6.62-3.82l-3.59-1.87c-1.81-.89-3.41-1.6-4.74-2.09-14-5.2-49.58.36-69.9,14.09A98.21,98.21,0,0,0,206.14,134l-2.68,3q-3.07,3.6-5.87,7.47L166.4,113.13V102.86L152,116.9l9.42.63,32.16,32.89a145.37,145.37,0,0,0-14.39,29.31c-8.77,24.36-7.08,54.51-2.07,76.79s24.9,41,30.92,53.3c2.76,5.63,3.44,18,3.5,31.28v.42c0,15.56-.74,32.23-.06,40.6,1.27,15.59,10.87,39.28,22.58,51.51,0,0,22.23,17.39,35.44,20.93s27.9,1.87,39.24-1.09,15.38-14.86,24-22.51,20.73-14.63,28.64-27.41,6.4-25.86,8.25-41.14,4-33.68,7.44-45.64,14.31-38.63,15.54-54C392.92,259.1,393,254.78,393,250.14ZM260.36,129.08c5.36-1.59,10.74.54,12,4.75a7.19,7.19,0,0,1-1.31,6.35,11.69,11.69,0,0,1-6.15,4.17,12.7,12.7,0,0,1-3.61.53,10.76,10.76,0,0,1-3.82-.68,7.19,7.19,0,0,1-4.57-4.61C251.65,135.39,255,130.67,260.36,129.08ZM196.9,207.34c-1.85-7.41,1.24-18.66,8.15-22.24,7.48-3.87,19.22-11.23,29.21-11.3,11.58-.08,27.5,4.63,35.29,12.41s10.38,11.86,8.53,18.53a91.31,91.31,0,0,1-4.92,13.08S259.2,198,237.5,198.22,205.05,217,205.05,217A14,14,0,0,1,196.9,207.34Zm62.38,212.92a6.15,6.15,0,0,1-4.46,1.72,12.63,12.63,0,0,1-8.54-4c-4.29-4.29-5.31-10-2.31-13s8.71-2,13,2.31a13.72,13.72,0,0,1,3.82,6.69A6.68,6.68,0,0,1,259.27,420.26Zm78.21-47.68c-5,5.93-38.47,3.71-51.82,3.34s-42.65,0-51.71-10c-4.57-5-2.63-21.5,0-27.8s14-14.25,14-14.25,8.62,10.4,14.67,9.39S278,342,286.92,342.19c6.35.14,13.66-8.49,20.1-8.11,8.56.5,13.26-8,13.26-8s11.86,8.35,18.9,15.39S342.53,366.65,337.48,372.58ZM357.7,322.2c-4.89,0-8.86-4.89-8.86-10.91s4-10.91,8.86-10.91,8.86,4.89,8.86,10.91S362.59,322.2,357.7,322.2ZM333.63,284a37,37,0,0,1-37-35c-1.73-1.33-6.41-4.64-10.17-4.64-4.7,0-11,5.19-11,5.19l-.12-.54a37,37,0,1,1-1.84-14.66H298.8A37,37,0,1,1,333.63,284Zm39.07-71.72a30.89,30.89,0,0,1-6,5.93s-15.12-17.37-34-17c-19.8.37-34.8,19.6-34.8,19.6s-4.82-1.85-7-10.38,1.48-19.65,7-23.35,19.66-13.43,30.64-12.17,16.83,1.32,30.2,6.53c7.67,3,15.88,11.16,16.62,16.86S376.41,207.88,372.7,212.32Z" transform="translate(-151.96 -39.05)"/><polygon class="cls-1" points="29.18 71.41 29.18 27.64 56.82 42.23 63.33 8.06 84.46 27.64 110.66 0 115.18 22.27 132.07 7.68 150.12 35.71 131.29 17.56 112.33 35.71 104.88 15.15 85.54 41.47 68.34 24.19 63.33 54.24 39.54 42.62 29.18 71.41"/></g></svg>