<svg id="Potato_Icon_B" data-name="Potato Icon B" xmlns="http://www.w3.org/2000/svg" viewBox="0 0 316.6 443.33"><defs><style>.cls-1{fill:none;}.cls-2{fill:#fef6e2;}</style></defs><title>potatowire-logo</title><g id="Layer_5" data-name="Layer 5"><path class="cls-1" d="M293.73,335.76s-5,9.06-14.08,8.52c-6.84-.4-14.6,8.76-21.34,8.61-9.45-.21-19.34-10.56-25.76-9.49s-15.57-10-15.57-10-12.12,8.44-14.92,15.13-4.85,24.16,0,29.52c9.62,10.63,40.74,10.23,54.91,10.63s49.67,2.75,55-3.54,9.29-25.58,1.81-33.06S293.73,335.76,293.73,335.76Z" transform="translate(-91.69 -31.01)"/><circle class="cls-1" cx="205.16" cy="211.84" r="9.27"/><circle class="cls-1" cx="99.83" cy="211.84" r="9.27"/><path class="cls-1" d="M162.71,209.71a14.87,14.87,0,0,0,8.66,10.23s11.41-19.68,34.46-19.92,37.85,20.82,37.85,20.82A97,97,0,0,0,248.91,207c2-7.08-.79-11.41-9.05-19.68S214.69,174,202.39,174.1c-10.62.07-23.08,7.89-31,12C164,189.9,160.74,201.84,162.71,209.71Z" transform="translate(-91.69 -31.01)"/><path class="cls-1" d="M141.67,261.93c-5.32-23.66-7.12-55.67,2.19-81.54A147.21,147.21,0,0,1,169.68,135a38,38,0,0,0-10.55-5.61,30.89,30.89,0,0,0-6.39-1.52c-3.92-.44-5.79,1.7-7.12,5.18-3.27,8.55-6.18,17-10.46,25.13-7.74,14.75-18.88,26.72-28,40.51a67.79,67.79,0,0,0-10.88,44.16c1.08,11.78,5,22.3,9.67,32.72,4.09,3.73,7.05,10.14,8.63,14.06a2.07,2.07,0,0,1-.86,2.61A103.16,103.16,0,0,1,118,304.31a1.72,1.72,0,0,1,.78.22,1.75,1.75,0,0,1,1.68,1.28,222.59,222.59,0,0,1,8.11,29.13,2.23,2.23,0,0,1-1.77,2.48q2.62,9.72,4.6,19.59l46.8-5.27c-.06-14.08-.78-27.23-3.71-33.21C168.11,305.48,147,285.59,141.67,261.93Z" transform="translate(-91.69 -31.01)"/><path class="cls-1" d="M307.91,212.51a39.34,39.34,0,0,0-37,25.94H244A39.35,39.35,0,1,0,246,254l.12.57s6.73-5.51,11.72-5.51c4,0,9,3.51,10.8,4.93a39.32,39.32,0,1,0,39.26-41.5ZM206.8,285.29A34.24,34.24,0,1,1,241,251,34.24,34.24,0,0,1,206.8,285.29Zm101.11,1.18a34.64,34.64,0,1,1,34.64-34.64A34.64,34.64,0,0,1,307.91,286.47Z" transform="translate(-91.69 -31.01)"/><path class="cls-1" d="M379.18,209.92a116.81,116.81,0,0,1,.73-19.17c.14-1,.26-2.25.47-3.62a17.67,17.67,0,0,1,.28-5.11A111.35,111.35,0,0,0,378,167.59c-1,.92-2.74,1-3.24-.66l-6.72-22a2.41,2.41,0,0,1-.06-.29A212.12,212.12,0,0,0,353.12,124c-4.82-6.1-9.71-12.61-15.64-17.7-6.1-5.24-12.43-7-20.4-6.84-6.28.16-12.15.1-17.9-2.82-5-2.55-9.2-6.4-13.19-10.32-5.91,4.87-9.41,11.55-12,18.66,19.49,10.58,54.83,36,71,61.49,19.08,30.07,16.23,25.09,20.6,41.62,3.25,12.31,5.14,30.82,5.34,46.19l15-12.25-3-24C379.78,216.78,379.25,213.28,379.18,209.92Z" transform="translate(-91.69 -31.01)"/><path class="cls-1" d="M334.48,182.24c-14.19-5.52-20.4-5.59-32.07-6.93s-26.63,9-32.53,12.92S260,204,262.41,213s7.48,11,7.48,11,15.93-20.42,37-20.82C326.93,202.86,343,221.3,343,221.3s2.47-1.57,6.41-6.3,3.53-8.8,2.74-14.86S342.63,185.41,334.48,182.24Z" transform="translate(-91.69 -31.01)"/><path class="cls-2" d="M224.37,424.11a10.65,10.65,0,0,0-7-3.4,3.58,3.58,0,0,0-2.61.94c-1.93,1.93-.8,6.31,2.45,9.57s7.64,4.38,9.57,2.45c1.16-1.17,1-3,.79-4A11.55,11.55,0,0,0,224.37,424.11Z" transform="translate(-91.69 -31.01)"/><path class="cls-2" d="M333.46,311.5c-3.54,0-6.41,3.85-6.41,8.58s2.88,8.58,6.41,8.58,6.41-3.85,6.41-8.58S337,311.5,333.46,311.5Z" transform="translate(-91.69 -31.01)"/><path class="cls-2" d="M227.74,140.8a11,11,0,0,0,12.09-3.59,5.69,5.69,0,0,0,1.09-5c-.77-2.6-3.62-4.18-7-4.18a11.51,11.51,0,0,0-3.27.48c-4.64,1.38-7.59,5.28-6.57,8.69A5.69,5.69,0,0,0,227.74,140.8Z" transform="translate(-91.69 -31.01)"/><path class="cls-2" d="M206.8,216.8A34.24,34.24,0,1,0,241,251,34.24,34.24,0,0,0,206.8,216.8Zm-15.28,35.32a9.27,9.27,0,1,1,9.27-9.27A9.27,9.27,0,0,1,191.52,252.12Z" transform="translate(-91.69 -31.01)"/><path class="cls-2" d="M307.91,217.2a34.64,34.64,0,1,0,34.64,34.64A34.64,34.64,0,0,0,307.91,217.2Zm-11.07,34.92a9.27,9.27,0,1,1,9.27-9.27A9.27,9.27,0,0,1,296.84,252.12Z" transform="translate(-91.69 -31.01)"/><path class="cls-1" d="M226.49,422c-4.56-4.56-10.63-5.64-13.81-2.45s-2.11,9.25,2.45,13.81a13.41,13.41,0,0,0,9.07,4.28,6.54,6.54,0,0,0,4.74-1.83,7.09,7.09,0,0,0,1.6-6.71A14.57,14.57,0,0,0,226.49,422Z" transform="translate(-91.69 -31.01)"/><path class="cls-1" d="M333.46,308.5c-5.19,0-9.41,5.2-9.41,11.58s4.22,11.58,9.41,11.58,9.41-5.2,9.41-11.58S338.65,308.5,333.46,308.5Z" transform="translate(-91.69 -31.01)"/><path class="cls-1" d="M141.67,261.93c-5.32-23.66-7.12-55.67,2.19-81.54A147.21,147.21,0,0,1,169.68,135a38,38,0,0,0-10.55-5.61,30.89,30.89,0,0,0-6.39-1.52c-3.92-.44-5.79,1.7-7.12,5.18-3.27,8.55-6.18,17-10.46,25.13-7.74,14.75-18.88,26.72-28,40.51a67.79,67.79,0,0,0-10.88,44.16c1.08,11.78,5,22.3,9.67,32.72,4.09,3.73,7.05,10.14,8.63,14.06a2.07,2.07,0,0,1-.86,2.61A103.16,103.16,0,0,1,118,304.31a1.72,1.72,0,0,1,.78.22,1.75,1.75,0,0,1,1.68,1.28,222.59,222.59,0,0,1,8.11,29.13,2.23,2.23,0,0,1-1.77,2.48q2.62,9.72,4.6,19.59l46.8-5.27c-.06-14.08-.78-27.23-3.71-33.21C168.11,305.48,147,285.59,141.67,261.93Z" transform="translate(-91.69 -31.01)"/><path class="cls-1" d="M227,142.67a11.43,11.43,0,0,0,4.06.72,13.48,13.48,0,0,0,3.83-.57,12.41,12.41,0,0,0,6.53-4.43,7.64,7.64,0,0,0,1.39-6.75c-1.33-4.47-7-6.74-12.74-5s-9.25,6.71-7.92,11.18A7.64,7.64,0,0,0,227,142.67Z" transform="translate(-91.69 -31.01)"/><path class="cls-1" d="M162.71,209.71a14.87,14.87,0,0,0,8.66,10.23s11.41-19.68,34.46-19.92,37.85,20.82,37.85,20.82A97,97,0,0,0,248.91,207c2-7.08-.79-11.41-9.05-19.68S214.69,174,202.39,174.1c-10.62.07-23.08,7.89-31,12C164,189.9,160.74,201.84,162.71,209.71Z" transform="translate(-91.69 -31.01)"/><path class="cls-1" d="M293.73,335.76s-5,9.06-14.08,8.52c-6.84-.4-14.6,8.76-21.34,8.61-9.45-.21-19.34-10.56-25.76-9.49s-15.57-10-15.57-10-12.12,8.44-14.92,15.13-4.85,24.16,0,29.52c9.62,10.63,40.74,10.23,54.91,10.63s49.67,2.75,55-3.54,9.29-25.58,1.81-33.06S293.73,335.76,293.73,335.76Z" transform="translate(-91.69 -31.01)"/><path class="cls-1" d="M307.91,212.51a39.34,39.34,0,0,0-37,25.94H244A39.35,39.35,0,1,0,246,254l.12.57s6.73-5.51,11.72-5.51c4,0,9,3.51,10.8,4.93a39.32,39.32,0,1,0,39.26-41.5Z" transform="translate(-91.69 -31.01)"/><path class="cls-1" d="M379.18,209.92a116.81,116.81,0,0,1,.73-19.17c.14-1,.26-2.25.47-3.62a17.67,17.67,0,0,1,.28-5.11A111.35,111.35,0,0,0,378,167.59c-1,.92-2.74,1-3.24-.66l-6.72-22a2.41,2.41,0,0,1-.06-.29A212.12,212.12,0,0,0,353.12,124c-4.82-6.1-9.71-12.61-15.64-17.7-6.1-5.24-12.43-7-20.4-6.84-6.28.16-12.15.1-17.9-2.82-5-2.55-9.2-6.4-13.19-10.32-5.91,4.87-9.41,11.55-12,18.66,19.49,10.58,54.83,36,71,61.49,19.08,30.07,16.23,25.09,20.6,41.62,3.25,12.31,5.14,30.82,5.34,46.19l15-12.25-3-24C379.78,216.78,379.25,213.28,379.18,209.92Z" transform="translate(-91.69 -31.01)"/><path class="cls-1" d="M334.48,182.24c-14.19-5.52-20.4-5.59-32.07-6.93s-26.63,9-32.53,12.92S260,204,262.41,213s7.48,11,7.48,11,15.93-20.42,37-20.82C326.93,202.86,343,221.3,343,221.3s2.47-1.57,6.41-6.3,3.53-8.8,2.74-14.86S342.63,185.41,334.48,182.24Z" transform="translate(-91.69 -31.01)"/><path class="cls-2" d="M398.81,224.94l.1,6.49-8.43,6.89,1.28-21.16c1.18-.87,1.52-2.39,1.59-4.18.18-4.62-.16-9.33-.23-14s.83-11-1.09-15.69a2.29,2.29,0,0,0-.14-.89c0-.08,0-.15,0-.23a2.78,2.78,0,0,0-.16-.95,2.35,2.35,0,0,0-.29-2.29,2,2,0,0,0-1.51-.75,2.29,2.29,0,0,0-1.55-.41l-.31-.13a4.08,4.08,0,0,0-2.49-.35,3.72,3.72,0,0,0-1.18.47c-.5-3.37-1.14-6.72-2-10a2.12,2.12,0,0,0,.75-2.5c-2.9-7.87-6-15.63-11.26-22.21a193.21,193.21,0,0,0-12.34-17.7c-8.17-10.64-17.81-25.49-31.61-29.25-6.67-1.82-13.51-.06-20.25-1.09-8.14-1.24-14.35-7.34-19.94-12.89a2.21,2.21,0,0,0-3-.3c-7.32,5.29-11.56,13-14.59,21.18-1.93-.95-3.62-1.7-5-2.22-14.86-5.52-52.65.39-74.23,15a104.28,104.28,0,0,0-18.41,16,40.43,40.43,0,0,0-19.36-8.17c-8.46-1-10.61,5.31-13,12.15C134,153.64,124.31,169.16,112.73,184,102.45,197.11,94,210.52,92.14,227.45c-1.65,15.14,1.3,30.6,7.27,44.53l.29.65a7.74,7.74,0,0,0-1.6.09,2.16,2.16,0,0,0-1.63,3,202.17,202.17,0,0,0,10.74,18,1.79,1.79,0,0,0,2.71.43c.88,2,1.71,4,2.46,6,.61,1.66,1.16,3.34,1.65,5-2.06.55-4.16,1.37-5.16,2.9-1.63,2.48.63,6.7,1.34,9.14L114,330.37c.71,2.45,1.1,7.32,3.58,8.84a5.41,5.41,0,0,0,1.35.62q3.63,8.89,7.34,17.75l-3,.34-3.94-4.08,2.84,11.68,1.13-4.58,4.16-.59.52,1.24c.94,2.22,4.53,1.21,4.08-1.2l-.13-.69c13.49-2,38.8-5.72,46.28-7.53.05,16.52-.79,34.23-.07,43.12,1.35,16.56,11.54,41.71,24,54.69,0,0,23.6,18.47,37.63,22.23s29.62,2,41.67-1.16,16.34-15.78,25.53-23.9,22-15.54,30.41-29.1,6.79-27.46,8.76-43.68,4.28-35.76,7.9-48.46,15.2-41,16.5-57.31c.32-3.92.44-8.51.4-13.44l16.47-11a2.11,2.11,0,0,0,2.84-1.77v-.12l11.34-7.57,6.7,1.83ZM230.1,126.6c5.7-1.69,11.41.57,12.74,5a7.64,7.64,0,0,1-1.39,6.75,12.41,12.41,0,0,1-6.53,4.43,13.48,13.48,0,0,1-3.83.57,11.43,11.43,0,0,1-4.06-.72,7.64,7.64,0,0,1-4.85-4.89C220.85,133.31,224.4,128.29,230.1,126.6Zm-27.7,47.5c12.29-.08,29.2,4.91,37.47,13.18s11,12.6,9.05,19.68a97,97,0,0,1-5.23,13.89S228.87,199.79,205.83,200s-34.46,19.92-34.46,19.92a14.87,14.87,0,0,1-8.66-10.23c-2-7.87,1.31-19.81,8.66-23.62C179.31,182,191.78,174.17,202.39,174.1ZM131.41,357q-2-9.88-4.6-19.59a2.23,2.23,0,0,0,1.77-2.48,222.59,222.59,0,0,0-8.11-29.13,1.75,1.75,0,0,0-1.68-1.28,1.72,1.72,0,0,0-.78-.22,103.16,103.16,0,0,0-4.29-12.07,2.07,2.07,0,0,0,.86-2.61c-1.58-3.91-4.54-10.33-8.63-14.06-4.71-10.42-8.59-20.94-9.67-32.72a67.79,67.79,0,0,1,10.88-44.16c9.11-13.79,20.25-25.75,28-40.51,4.27-8.14,7.18-16.58,10.46-25.13,1.33-3.47,3.2-5.61,7.12-5.18a30.89,30.89,0,0,1,6.39,1.52A38,38,0,0,1,169.68,135a147.21,147.21,0,0,0-25.81,45.37c-9.31,25.87-7.51,57.88-2.19,81.54s26.44,43.55,32.83,56.59c2.93,6,3.66,19.13,3.71,33.21Zm97.54,78.8a6.54,6.54,0,0,1-4.74,1.83,13.41,13.41,0,0,1-9.07-4.28c-4.56-4.56-5.64-10.63-2.45-13.81s9.25-2.11,13.81,2.45a14.57,14.57,0,0,1,4.06,7.1A7.09,7.09,0,0,1,228.95,435.8Zm83-50.63c-5.35,6.3-40.85,3.94-55,3.54s-45.29,0-54.91-10.63c-4.85-5.36-2.8-22.83,0-29.52S217,333.44,217,333.44s9.16,11,15.57,10,16.3,9.28,25.76,9.49c6.74.15,14.5-9,21.34-8.61,9.09.53,14.08-8.52,14.08-8.52s12.6,8.87,20.07,16.35S317.35,378.87,312,385.17Zm21.47-53.5c-5.19,0-9.41-5.2-9.41-11.58s4.22-11.58,9.41-11.58,9.41,5.2,9.41,11.58S338.65,331.67,333.46,331.67Zm-25.55-40.51A39.32,39.32,0,0,1,268.65,254c-1.84-1.41-6.81-4.93-10.8-4.93-5,0-11.72,5.51-11.72,5.51L246,254A39.3,39.3,0,1,1,244,238.45h26.87a39.33,39.33,0,1,1,37,52.71ZM349.39,215c-3.94,4.72-6.41,6.3-6.41,6.3s-16.05-18.44-36.15-18.06c-21,.4-37,20.82-37,20.82s-5.12-2-7.48-11,1.57-20.86,7.48-24.8,20.87-14.26,32.53-12.92,17.87,1.41,32.07,6.93c8.14,3.17,16.86,11.85,17.65,17.9S353.33,210.28,349.39,215Zm21.53,39.3c-.21-15.37-2.09-33.87-5.34-46.19-4.36-16.53-1.52-11.55-20.6-41.62C328.84,141,293.5,115.58,274,105c2.57-7.11,6.07-13.78,12-18.66,4,3.93,8.17,7.77,13.19,10.32,5.75,2.92,11.62,3,17.9,2.82,8-.2,14.3,1.6,20.4,6.84,5.92,5.09,10.81,11.6,15.64,17.7A212.12,212.12,0,0,1,368,144.65a2.41,2.41,0,0,0,.06.29l6.72,22c.5,1.65,2.22,1.58,3.24.66A111.35,111.35,0,0,1,380.66,182a17.67,17.67,0,0,0-.28,5.11c-.21,1.36-.33,2.66-.47,3.62a116.81,116.81,0,0,0-.73,19.17c.07,3.36.6,6.86,3.74,8.08l3,24Z" transform="translate(-91.69 -31.01)"/><polygon class="cls-2" points="54.29 75.83 54.29 29.35 83.65 44.85 90.56 8.56 113 29.35 140.82 0 145.62 23.65 163.55 8.16 182.72 37.92 162.72 18.65 142.59 37.92 134.68 16.09 114.15 44.03 95.88 25.68 90.56 57.59 65.3 45.26 54.29 75.83"/></g></svg>