<svg xmlns="http://www.w3.org/2000/svg" viewBox="0 0 1785.42 416.28"><defs><style>.cls-1{fill:#fef6e3;}.cls-2{fill:none;}</style></defs><title>potatowire-title</title><g id="Layer_6" data-name="Layer 6"><path class="cls-1" d="M525.43,367.57l-34-200,16.17-.12,26.31,162.44,30.29-159.42h15.57l30.77,159.67L635,167.48h15.93L618.6,367.57H603.87L572.13,202.35l-31.5,165.22Z" transform="translate(-130.29 -40.81)"/><path class="cls-1" d="M677.73,367.57V167.48h18.59V367.57Z" transform="translate(-130.29 -40.81)"/><path class="cls-1" d="M753.28,367.57V182H713.09V167.48h98.36V182H772.23V367.57Z" transform="translate(-130.29 -40.81)"/><path class="cls-1" d="M827.62,367.57V167.48h18.95v88.7h63v-88.7h18.95V367.57H909.57V270.06h-63v97.51Z" transform="translate(-130.29 -40.81)"/><path class="cls-1" d="M1035.32,367.57V182H995.13V167.48h98.36V182h-39.22V367.57Z" transform="translate(-130.29 -40.81)"/><path class="cls-1" d="M1109.66,367.57V167.48h18.95v88.7h63v-88.7h18.95V367.57H1191.6V270.06h-63v97.51Z" transform="translate(-130.29 -40.81)"/><path class="cls-1" d="M1245.31,367.57V167.48h72.29V182h-53.34V256.9h43.69v14h-43.69v82.55h53.95v14.12Z" transform="translate(-130.29 -40.81)"/><path class="cls-1" d="M1439.61,370.23q-13.88,0-23.65-4.47a35.1,35.1,0,0,1-15.33-13.09,59.4,59.4,0,0,1-8-19.85,125.6,125.6,0,0,1-2.41-26.19v-78.2a127.54,127.54,0,0,1,2.35-26.25,57.9,57.9,0,0,1,7.91-19.61,34.22,34.22,0,0,1,15.63-12.91q10.08-4.34,24.68-4.34,25.95,0,37.17,14.42t11.22,43.14V230h-17.74v-7.12q0-22.45-6.4-32.52t-24-10.08a36.83,36.83,0,0,0-13.88,2.35,24.78,24.78,0,0,0-9.23,6.15,27,27,0,0,0-5.43,10,62.28,62.28,0,0,0-2.66,12.61,150,150,0,0,0-.66,15.21V308.8a117.39,117.39,0,0,0,1.39,19.61,44,44,0,0,0,4.89,14.24,21.69,21.69,0,0,0,10,9.23q6.46,3,16,3,17.62,0,24.44-11.46t6.82-35.12V284.66h-29.45V270.78h46.83v96.79H1478l-2.29-22.69Q1467.37,370.23,1439.61,370.23Z" transform="translate(-130.29 -40.81)"/><path class="cls-1" d="M1522.64,367.57V167.48h45.5q26.67,0,38.14,12.85T1617.74,218q0,41.4-27.88,47.19l31,102.34h-18.58L1573,269.21h-31.38v98.36Zm18.95-112.24h25.46q18.1,0,25.22-8.87T1599.4,218q0-19.31-6.76-27.88t-25-8.57h-26.07Z" transform="translate(-130.29 -40.81)"/><path class="cls-1" d="M1638.62,367.57l42.24-200.09h19.79l42.48,200.09h-18.46l-9.9-53.46H1667l-10.14,53.46Zm31-67.22h42.6l-21.36-107.89Z" transform="translate(-130.29 -40.81)"/><path class="cls-1" d="M1768,367.57V167.48h18.58V367.57Z" transform="translate(-130.29 -40.81)"/><path class="cls-1" d="M1821.94,367.57V167.48h13.88l63.72,155.32V167.48h16.17V367.57h-13.28l-64.2-157.13V367.57Z" transform="translate(-130.29 -40.81)"/></g><g id="Layer_5" data-name="Layer 5"><path class="cls-2" d="M320,327s-4.69,8.5-13.23,8c-6.42-.38-13.71,8.23-20,8.09-8.88-.2-18.16-9.91-24.18-8.91s-14.62-9.36-14.62-9.36-11.38,7.92-14,14.21-4.56,22.69,0,27.72c9,10,38.25,9.61,51.56,10s46.64,2.59,51.67-3.33,8.72-24,1.7-31S320,327,320,327Z" transform="translate(-130.29 -40.81)"/><circle class="cls-2" cx="192.64" cy="198.92" r="8.7"/><circle class="cls-2" cx="93.74" cy="198.92" r="8.7"/><path class="cls-2" d="M197,208.62a14,14,0,0,0,8.13,9.61s10.72-18.48,32.36-18.7S273,219.07,273,219.07a91,91,0,0,0,4.91-13c1.85-6.65-.74-10.72-8.5-18.48s-23.64-12.45-35.18-12.37c-10,.07-21.67,7.4-29.13,11.27C198.21,190,195.14,201.22,197,208.62Z" transform="translate(-130.29 -40.81)"/><path class="cls-2" d="M177.22,257.65c-5-22.22-6.68-52.28,2.06-76.57a138.23,138.23,0,0,1,24.24-42.6,35.65,35.65,0,0,0-9.9-5.27,29,29,0,0,0-6-1.43c-3.68-.41-5.44,1.6-6.68,4.86-3.07,8-5.81,15.95-9.82,23.59-7.27,13.85-17.73,25.09-26.28,38a63.66,63.66,0,0,0-10.22,41.46c1,11.06,4.65,20.94,9.08,30.72,3.84,3.5,6.62,9.52,8.11,13.2a1.94,1.94,0,0,1-.81,2.45,96.86,96.86,0,0,1,4,11.33,1.61,1.61,0,0,1,.73.21,1.65,1.65,0,0,1,1.57,1.2,209,209,0,0,1,7.61,27.35,2.1,2.1,0,0,1-1.66,2.33q2.46,9.12,4.32,18.39l43.95-5c-.06-13.22-.74-25.57-3.49-31.18C202,298.54,182.22,279.86,177.22,257.65Z" transform="translate(-130.29 -40.81)"/><path class="cls-2" d="M333.32,211.24a36.94,36.94,0,0,0-34.73,24.36H273.36a36.95,36.95,0,1,0,1.83,14.62l.12.53s6.32-5.17,11-5.17c3.75,0,8.42,3.3,10.14,4.63a36.92,36.92,0,1,0,36.87-39Zm-94.94,68.34a32.15,32.15,0,1,1,32.15-32.15A32.15,32.15,0,0,1,238.38,279.59Zm94.94,1.11a32.52,32.52,0,1,1,32.52-32.52A32.52,32.52,0,0,1,333.32,280.7Z" transform="translate(-130.29 -40.81)"/><path class="cls-2" d="M400.25,208.81a109.68,109.68,0,0,1,.68-18c.13-.89.24-2.12.44-3.4a16.59,16.59,0,0,1,.27-4.8,104.56,104.56,0,0,0-2.51-13.55c-1,.86-2.57.93-3-.62l-6.31-20.66a2.26,2.26,0,0,1-.06-.27,199.18,199.18,0,0,0-13.94-19.35c-4.53-5.72-9.12-11.84-14.68-16.62-5.73-4.92-11.67-6.61-19.16-6.43-5.9.15-11.41.09-16.81-2.65-4.72-2.4-8.64-6-12.39-9.69-5.55,4.58-8.84,10.85-11.25,17.52,18.3,9.93,51.49,33.84,66.65,57.74,17.92,28.24,15.24,23.56,19.34,39.08,3.05,11.56,4.82,28.94,5,43.37L406.58,239l-2.82-22.58C400.81,215.25,400.31,212,400.25,208.81Z" transform="translate(-130.29 -40.81)"/><path class="cls-2" d="M358.28,182.82c-13.33-5.19-19.16-5.25-30.11-6.51s-25,8.44-30.55,12.13-9.24,14.78-7,23.28,7,10.35,7,10.35,15-19.17,34.7-19.55c18.87-.36,33.94,17,33.94,17a30.8,30.8,0,0,0,6-5.91c3.7-4.44,3.31-8.26,2.57-13.95S365.92,185.8,358.28,182.82Z" transform="translate(-130.29 -40.81)"/><path class="cls-1" d="M254.88,409.94a10,10,0,0,0-6.54-3.19,3.36,3.36,0,0,0-2.45.89c-1.81,1.81-.75,5.92,2.3,9s7.17,4.11,9,2.3a4.12,4.12,0,0,0,.74-3.72A10.85,10.85,0,0,0,254.88,409.94Z" transform="translate(-130.29 -40.81)"/><ellipse class="cls-1" cx="227.03" cy="271.45" rx="6.02" ry="8.06"/><path class="cls-1" d="M258,143.91a10.35,10.35,0,0,0,11.35-3.37,5.34,5.34,0,0,0,1-4.69c-.72-2.44-3.4-3.93-6.56-3.93a10.81,10.81,0,0,0-3.07.45c-4.36,1.29-7.12,5-6.17,8.16A5.34,5.34,0,0,0,258,143.91Z" transform="translate(-130.29 -40.81)"/><path class="cls-1" d="M238.38,215.28a32.15,32.15,0,1,0,32.15,32.15A32.15,32.15,0,0,0,238.38,215.28ZM224,248.44a8.7,8.7,0,1,1,8.7-8.7A8.7,8.7,0,0,1,224,248.44Z" transform="translate(-130.29 -40.81)"/><path class="cls-1" d="M333.32,215.65a32.52,32.52,0,1,0,32.52,32.52A32.52,32.52,0,0,0,333.32,215.65Zm-10.39,32.79a8.7,8.7,0,1,1,8.7-8.7A8.7,8.7,0,0,1,322.93,248.44Z" transform="translate(-130.29 -40.81)"/><path class="cls-2" d="M256.87,407.95c-4.28-4.28-10-5.29-13-2.3s-2,8.69,2.3,13a12.59,12.59,0,0,0,8.52,4,6.14,6.14,0,0,0,4.45-1.72,6.66,6.66,0,0,0,1.5-6.3A13.68,13.68,0,0,0,256.87,407.95Z" transform="translate(-130.29 -40.81)"/><path class="cls-2" d="M357.32,301.38c-4.87,0-8.84,4.88-8.84,10.88s4,10.88,8.84,10.88,8.84-4.88,8.84-10.88S362.19,301.38,357.32,301.38Z" transform="translate(-130.29 -40.81)"/><path class="cls-2" d="M177.22,257.65c-5-22.22-6.68-52.28,2.06-76.57a138.23,138.23,0,0,1,24.24-42.6,35.65,35.65,0,0,0-9.9-5.27,29,29,0,0,0-6-1.43c-3.68-.41-5.44,1.6-6.68,4.86-3.07,8-5.81,15.95-9.82,23.59-7.27,13.85-17.73,25.09-26.28,38a63.66,63.66,0,0,0-10.22,41.46c1,11.06,4.65,20.94,9.08,30.72,3.84,3.5,6.62,9.52,8.11,13.2a1.94,1.94,0,0,1-.81,2.45,96.86,96.86,0,0,1,4,11.33,1.61,1.61,0,0,1,.73.21,1.65,1.65,0,0,1,1.57,1.2,209,209,0,0,1,7.61,27.35,2.1,2.1,0,0,1-1.66,2.33q2.46,9.12,4.32,18.39l43.95-5c-.06-13.22-.74-25.57-3.49-31.18C202,298.54,182.22,279.86,177.22,257.65Z" transform="translate(-130.29 -40.81)"/><path class="cls-2" d="M257.37,145.67a10.73,10.73,0,0,0,3.81.67,12.66,12.66,0,0,0,3.6-.53,11.65,11.65,0,0,0,6.13-4.16,7.17,7.17,0,0,0,1.31-6.33c-1.25-4.2-6.61-6.33-12-4.74s-8.68,6.3-7.44,10.5A7.17,7.17,0,0,0,257.37,145.67Z" transform="translate(-130.29 -40.81)"/><path class="cls-2" d="M197,208.62a14,14,0,0,0,8.13,9.61s10.72-18.48,32.36-18.7S273,219.07,273,219.07a91,91,0,0,0,4.91-13c1.85-6.65-.74-10.72-8.5-18.48s-23.64-12.45-35.18-12.37c-10,.07-21.67,7.4-29.13,11.27C198.21,190,195.14,201.22,197,208.62Z" transform="translate(-130.29 -40.81)"/><path class="cls-2" d="M320,327s-4.69,8.5-13.23,8c-6.42-.38-13.71,8.23-20,8.09-8.88-.2-18.16-9.91-24.18-8.91s-14.62-9.36-14.62-9.36-11.38,7.92-14,14.21-4.56,22.69,0,27.72c9,10,38.25,9.61,51.56,10s46.64,2.59,51.67-3.33,8.72-24,1.7-31S320,327,320,327Z" transform="translate(-130.29 -40.81)"/><path class="cls-2" d="M333.32,211.24a36.94,36.94,0,0,0-34.73,24.36H273.36a36.95,36.95,0,1,0,1.83,14.62l.12.53s6.32-5.17,11-5.17c3.75,0,8.42,3.3,10.14,4.63a36.92,36.92,0,1,0,36.87-39Z" transform="translate(-130.29 -40.81)"/><path class="cls-2" d="M400.25,208.81a109.68,109.68,0,0,1,.68-18c.13-.89.24-2.12.44-3.4a16.59,16.59,0,0,1,.27-4.8,104.56,104.56,0,0,0-2.51-13.55c-1,.86-2.57.93-3-.62l-6.31-20.66a2.26,2.26,0,0,1-.06-.27,199.18,199.18,0,0,0-13.94-19.35c-4.53-5.72-9.12-11.84-14.68-16.62-5.73-4.92-11.67-6.61-19.16-6.43-5.9.15-11.41.09-16.81-2.65-4.72-2.4-8.64-6-12.39-9.69-5.55,4.58-8.84,10.85-11.25,17.52,18.3,9.93,51.49,33.84,66.65,57.74,17.92,28.24,15.24,23.56,19.34,39.08,3.05,11.56,4.82,28.94,5,43.37L406.58,239l-2.82-22.58C400.81,215.25,400.31,212,400.25,208.81Z" transform="translate(-130.29 -40.81)"/><path class="cls-2" d="M358.28,182.82c-13.33-5.19-19.16-5.25-30.11-6.51s-25,8.44-30.55,12.13-9.24,14.78-7,23.28,7,10.35,7,10.35,15-19.17,34.7-19.55c18.87-.36,33.94,17,33.94,17a30.8,30.8,0,0,0,6-5.91c3.7-4.44,3.31-8.26,2.57-13.95S365.92,185.8,358.28,182.82Z" transform="translate(-130.29 -40.81)"/><path class="cls-1" d="M418.68,222.92l.1,6.1-7.92,6.47,1.2-19.87c1.11-.82,1.43-2.25,1.5-3.93.17-4.34-.15-8.76-.22-13.1s.78-10.34-1-14.74a2.15,2.15,0,0,0-.13-.83c0-.07,0-.14,0-.22a2.61,2.61,0,0,0-.15-.89,2.21,2.21,0,0,0-.28-2.15,1.84,1.84,0,0,0-1.42-.71,2.15,2.15,0,0,0-1.46-.38l-.29-.12a3.83,3.83,0,0,0-2.33-.33,3.5,3.5,0,0,0-1.11.44c-.47-3.17-1.07-6.31-1.84-9.43a2,2,0,0,0,.7-2.35c-2.72-7.39-5.61-14.68-10.58-20.86a181.42,181.42,0,0,0-11.58-16.62c-7.67-10-16.72-23.93-29.68-27.46-6.26-1.71-12.68-.06-19-1-7.64-1.16-13.47-6.9-18.73-12.11a2.08,2.08,0,0,0-2.83-.29c-6.88,5-10.85,12.17-13.7,19.89-1.81-.89-3.4-1.59-4.73-2.09-14-5.18-49.44.36-69.7,14.05a97.92,97.92,0,0,0-17.28,15A38,38,0,0,0,188,127.78c-7.94-1-10,5-12.18,11.41-5.78,16.78-14.91,31.35-25.79,45.25-9.66,12.34-17.6,24.93-19.34,40.83-1.55,14.22,1.22,28.73,6.83,41.82l.27.61a7.26,7.26,0,0,0-1.5.09,2,2,0,0,0-1.53,2.8,189.84,189.84,0,0,0,10.09,16.88,1.68,1.68,0,0,0,2.54.4c.82,1.86,1.61,3.73,2.31,5.64.57,1.56,1.09,3.14,1.55,4.72-1.94.52-3.91,1.29-4.85,2.72-1.54,2.33.59,6.29,1.26,8.59l3.6,12.38c.67,2.3,1,6.87,3.36,8.3a5.08,5.08,0,0,0,1.27.58q3.4,8.35,6.89,16.66l-2.85.32-3.7-3.83,2.67,11,1.06-4.3,3.9-.55.49,1.17c.88,2.09,4.25,1.13,3.83-1.13l-.12-.64c12.67-1.83,36.43-5.37,43.46-7.07,0,15.51-.74,32.14-.06,40.49,1.26,15.55,10.84,39.17,22.51,51.36,0,0,22.16,17.34,35.34,20.87S297.14,457,308.45,454s15.34-14.81,24-22.44S353.09,417,361,404.25s6.38-25.79,8.23-41,4-33.58,7.42-45.51,14.27-38.52,15.5-53.82c.3-3.68.42-8,.37-12.62L408,241a2,2,0,0,0,2.66-1.66v-.12l10.65-7.1,6.29,1.72ZM260.26,130.58c5.35-1.59,10.71.54,12,4.74a7.17,7.17,0,0,1-1.31,6.33,11.65,11.65,0,0,1-6.13,4.16,12.66,12.66,0,0,1-3.6.53,10.73,10.73,0,0,1-3.81-.67,7.17,7.17,0,0,1-4.55-4.59C251.57,136.87,254.91,132.16,260.26,130.58Zm-26,44.6c11.54-.08,27.42,4.61,35.18,12.37s10.35,11.83,8.5,18.48a91,91,0,0,1-4.91,13s-13.91-19.77-35.55-19.55-32.36,18.7-32.36,18.7a14,14,0,0,1-8.13-9.61c-1.85-7.39,1.23-18.6,8.13-22.18C212.57,182.58,224.27,175.24,234.24,175.17ZM167.59,346.92q-1.84-9.28-4.32-18.39a2.1,2.1,0,0,0,1.66-2.33,209,209,0,0,0-7.61-27.35,1.65,1.65,0,0,0-1.57-1.2,1.61,1.61,0,0,0-.73-.21,96.86,96.86,0,0,0-4-11.33,1.94,1.94,0,0,0,.81-2.45c-1.49-3.68-4.26-9.7-8.11-13.2-4.42-9.78-8.07-19.66-9.08-30.72a63.66,63.66,0,0,1,10.22-41.46c8.56-13,19-24.18,26.28-38,4-7.65,6.74-15.57,9.82-23.59,1.25-3.26,3-5.27,6.68-4.86a29,29,0,0,1,6,1.43,35.65,35.65,0,0,1,9.9,5.27,138.23,138.23,0,0,0-24.24,42.6c-8.74,24.29-7.06,54.35-2.06,76.57S202,298.54,208,310.79c2.75,5.61,3.43,18,3.49,31.18Zm91.59,74a6.14,6.14,0,0,1-4.45,1.72,12.59,12.59,0,0,1-8.52-4c-4.28-4.28-5.29-10-2.3-13s8.69-2,13,2.3a13.68,13.68,0,0,1,3.81,6.67A6.66,6.66,0,0,1,259.18,420.91Zm78-47.54c-5,5.91-38.36,3.7-51.67,3.33s-42.53,0-51.56-10c-4.56-5-2.63-21.44,0-27.72s14-14.21,14-14.21,8.6,10.37,14.62,9.36,15.31,8.71,24.18,8.91c6.33.14,13.62-8.46,20-8.09,8.54.5,13.23-8,13.23-8s11.83,8.33,18.85,15.35S342.19,367.46,337.16,373.37Zm20.16-50.23c-4.87,0-8.84-4.88-8.84-10.88s4-10.88,8.84-10.88,8.84,4.88,8.84,10.88S362.19,323.14,357.32,323.14Zm-24-38a36.93,36.93,0,0,1-36.87-34.89c-1.73-1.33-6.4-4.63-10.14-4.63-4.69,0-11,5.17-11,5.17l-.12-.53a36.9,36.9,0,1,1-1.83-14.62h25.24a36.93,36.93,0,1,1,34.73,49.49Zm39-71.52a30.8,30.8,0,0,1-6,5.91s-15.07-17.32-33.94-17c-19.74.37-34.7,19.55-34.7,19.55s-4.8-1.85-7-10.35,1.48-19.59,7-23.28,19.6-13.39,30.55-12.13,16.78,1.32,30.11,6.51c7.65,3,15.83,11.12,16.57,16.81S376,209.15,372.28,213.58Zm20.22,36.9c-.2-14.43-2-31.81-5-43.37-4.1-15.52-1.42-10.84-19.34-39.08-15.16-23.9-48.35-47.8-66.65-57.74,2.41-6.67,5.7-12.94,11.25-17.52,3.75,3.69,7.67,7.3,12.39,9.69,5.4,2.74,10.91,2.8,16.81,2.65,7.49-.19,13.43,1.5,19.16,6.43,5.56,4.78,10.15,10.9,14.68,16.62a199.18,199.18,0,0,1,13.94,19.35,2.26,2.26,0,0,0,.06.27l6.31,20.66c.47,1.55,2.09,1.48,3,.62a104.56,104.56,0,0,1,2.51,13.55,16.59,16.59,0,0,0-.27,4.8c-.2,1.28-.31,2.5-.44,3.4a109.68,109.68,0,0,0-.68,18c.06,3.16.56,6.44,3.51,7.59L406.58,239Z" transform="translate(-130.29 -40.81)"/><polygon class="cls-1" points="50.98 71.21 50.98 27.56 78.55 42.11 85.04 8.04 106.11 27.56 132.23 0 136.74 22.2 153.58 7.66 171.57 35.6 152.8 17.51 133.89 35.6 126.47 15.11 107.19 41.34 90.03 24.12 85.04 54.08 61.32 42.49 50.98 71.21"/></g></svg>